<svg viewBox="0 0 58 114" fill="none" xmlns="http://www.w3.org/2000/svg"><path d="M57 30h-8c-.08-6.33-1-10.06-2.88-12.36C43.54 14.56 37.78 13 29 13c-8.78 0-14.54 1.56-17.11 4.64C10 19.94 9.09 23.67 9 30H1C1 15.09 7 1 29 1s28 14.09 28 29ZM49 30h8c0 9.6-1.24 18-8.8 22.82C44 55.47 37.91 57 29 57s-15-1.53-19.2-4.18C2.24 48 1 39.6 1 30h8v1c0 14 6 20 20 20s20-6 20-20v-1Z" fill="#fff"/><path d="m45.84 76.28.28 4.72H11.88l.28-4.72-9 3L1 80c0-15.46 2.49-23.45 8.8-27.18C14 55.47 20.09 57 29 57s15-1.53 19.2-4.18C54.51 56.55 57 64.54 57 80l-2.15-.72-9.01-3Zm-8.9-.28a1.998 1.998 0 0 0 2-2.28l-1.22-8.29A4.08 4.08 0 0 0 33.67 62h-9.34a4.08 4.08 0 0 0-4.09 3.43L19 73.72A2 2 0 0 0 21 76h15.94Z" fill="#fff"/><path d="M32 70a2 2 0 1 0 0-4 2 2 0 0 0 0 4Z" fill="#595863"/><path d="m45.84 76.28 9 3c-.75 3.5-4.5 6.58-8.44 6.71l-.29-5-.27-4.71ZM49 31a34.235 34.235 0 0 1-.57 6.62C46.66 46.94 40.56 51 29 51a32.871 32.871 0 0 1-8-.86C12.67 48 9 42 9 31v-1c.08-6.33 1-10.06 2.88-12.36C14.46 14.56 20.22 13 29 13c8.78 0 14.54 1.56 17.11 4.64 1.92 2.3 2.8 6 2.88 12.36.01.34.01.69.01 1Z" fill="#B5B3C9"/><path d="M47.05 96.86 48 113c-3.5-10.67-15.5-10.67-19 0v-13l18.05-3.14Z" fill="#fff"/><path d="M48 113H29c3.5-10.67 15.5-10.67 19 0Z" fill="#595863"/><path d="m46.82 92.9.23 3.96L29 100v-4l17.82-3.1Z" fill="#3451E8"/><path d="m29 96-17.82-3.1.41-6.91.29-4.99h34.24l.29 4.99.41 6.91L29 96Z" fill="#fff"/><path d="M39 73.72A2 2 0 0 1 37 76H21.06a2.001 2.001 0 0 1-2-2.28l1.22-8.29A4.08 4.08 0 0 1 24.33 62h9.34a4.08 4.08 0 0 1 4.09 3.43L39 73.72ZM34 68a2 2 0 1 0-4 0 2 2 0 0 0 4 0Z" fill="#B5B3C9"/><path d="M29 100v13c-3.5-10.67-15.5-10.67-19 0l1-16.14L29 100Z" fill="#fff"/><path d="M29 96v4l-18.05-3.14.23-3.96L29 96Z" fill="#3451E8"/><path d="M29 113H10c3.5-10.67 15.5-10.67 19 0Z" fill="#595863"/><path d="M12.16 76.28 11.88 81l-.29 5c-3.94-.13-7.69-3.21-8.44-6.71l9.01-3.01Z" fill="#B5B3C9"/><path d="M48.43 37.67C46.66 46.94 40.56 51 29 51a32.866 32.866 0 0 1-8-.86c7.26-3.3 21.69-2.67 27.43-12.47Z" fill="#9695AF"/><path d="M3.15 79.28c.75 3.5 4.5 6.58 8.44 6.71M46.41 86c3.94-.13 7.69-3.21 8.44-6.71" stroke="#27272D" stroke-width="2" stroke-linecap="round" stroke-linejoin="round"/><path d="M9.8 52.82C3.49 56.55 1 64.54 1 80l2.15-.72 9-3M10 113l.95-16.14.23-3.96.41-6.91.29-4.99.28-4.72L13 62M45 62l.84 14.28.28 4.72.29 4.99.41 6.91.23 3.96L48 113M48.2 52.82C54.51 56.55 57 64.54 57 80l-2.15-.72-9-3M46.12 81H11.88M29 113V93M10 113c3.5-10.67 15.5-10.67 19 0H10ZM29 113c3.5-10.67 15.5-10.67 19 0H29ZM1 30c0 9.6 1.24 18 8.8 22.82C14 55.47 20.09 57 29 57s15-1.53 19.2-4.18C55.76 48 57 39.6 57 30c0-14.91-6-29-28-29S1 15.09 1 30Z" stroke="#27272D" stroke-width="2" stroke-linecap="round" stroke-linejoin="round"/><path d="M49 30c-.08-6.33-1-10.06-2.88-12.36C43.54 14.56 37.78 13 29 13c-8.78 0-14.54 1.56-17.11 4.64C10 19.94 9.09 23.67 9 30v1c0 14 6 20 20 20s20-6 20-20v-1ZM29 96l-17.82-3.1M29 100l-18.05-3.14M46.82 92.9 29 96M47.05 96.86 29 100M36.94 76H21.06a2.001 2.001 0 0 1-2-2.28l1.22-8.29A4.08 4.08 0 0 1 24.33 62h9.34a4.08 4.08 0 0 1 4.09 3.43l1.22 8.29A2 2 0 0 1 36.94 76Z" stroke="#27272D" stroke-width="2" stroke-linecap="round" stroke-linejoin="round"/><path d="M32 70a2 2 0 1 0 0-4 2 2 0 0 0 0 4ZM1 30h8M57 30h-8" stroke="#27272D" stroke-width="2" stroke-linecap="round" stroke-linejoin="round"/><path d="M15.58 22.73c.333-.54.76-1.018 1.26-1.41a5.169 5.169 0 0 1 1.69-.9 5.48 5.48 0 0 1 1.94-.25 7.638 7.638 0 0 1 1.9.34 1.002 1.002 0 0 1 .213 1.842 1.005 1.005 0 0 1-.763.088h-.13a5.809 5.809 0 0 0-1.35-.46 3.86 3.86 0 0 0-1.39 0 3.789 3.789 0 0 0-1.35.48 4.379 4.379 0 0 0-1.13.92.5.5 0 0 1-.8-.59l-.09-.06ZM41.58 23.27a4.38 4.38 0 0 0-1.13-.92 3.793 3.793 0 0 0-1.35-.48 3.86 3.86 0 0 0-1.39 0c-.467.097-.92.251-1.35.46a1.002 1.002 0 1 1-.82-1.83h.13a7.643 7.643 0 0 1 1.9-.34 5.482 5.482 0 0 1 1.94.25 5.17 5.17 0 0 1 1.69.9c.5.391.927.869 1.26 1.41a.5.5 0 0 1-.8.59l-.08-.04ZM38 31a3 3 0 1 0 0-6 3 3 0 0 0 0 6ZM20 31a3 3 0 1 0 0-6 3 3 0 0 0 0 6Z" fill="#27272D"/><path class="fix-that-smile-plz" d="M36.5 38.5s-3.2 7.37-12 4.21" stroke="#27272D" stroke-width="2" stroke-linecap="round" stroke-linejoin="round"/></svg>