<svg xmlns="http://www.w3.org/2000/svg" width="2096" height="601" fill="none"><g stroke-width="2" stroke="red"><path d="M0 125.468s131-31.367 262-31.367 262 31.367 262 31.367 131 31.367 262 31.367 262-31.367 262-31.367 131-31.367 262-31.367 262 31.367 262 31.367 131 31.367 262 31.367 262-31.367 262-31.367"/><path d="M0 94.102s131-31.368 262-31.368 262 31.367 262 31.367 131 31.368 262 31.368 262-31.367 262-31.367 131-31.368 262-31.368 262 31.367 262 31.367 131 31.368 262 31.368 262-31.367 262-31.367"/><path d="M0 156.835s131-31.367 262-31.367 262 31.367 262 31.367 131 31.367 262 31.367 262-31.367 262-31.367 131-31.367 262-31.367 262 31.367 262 31.367 131 31.367 262 31.367 262-31.367 262-31.367M0 62.735s131-31.368 262-31.368 262 31.367 262 31.367 131 31.367 262 31.367 262-31.367 262-31.367 131-31.367 262-31.367 262 31.367 262 31.367 131 31.367 262 31.367 262-31.367 262-31.367"/><path d="M0 31.367S131 0 262 0s262 31.367 262 31.367 131 31.367 262 31.367 262-31.367 262-31.367S1179 0 1310 0s262 31.367 262 31.367 131 31.367 262 31.367 262-31.367 262-31.367M0 188.203s131-31.368 262-31.368 262 31.368 262 31.368 131 31.367 262 31.367 262-31.367 262-31.367 131-31.368 262-31.368 262 31.368 262 31.368 131 31.367 262 31.367 262-31.367 262-31.367M0 506.468s131-31.367 262-31.367 262 31.367 262 31.367 131 31.367 262 31.367 262-31.367 262-31.367 131-31.367 262-31.367 262 31.367 262 31.367 131 31.367 262 31.367 262-31.367 262-31.367"/><path d="M0 475.101s131-31.367 262-31.367 262 31.367 262 31.367 131 31.368 262 31.368 262-31.368 262-31.368 131-31.367 262-31.367 262 31.367 262 31.367 131 31.368 262 31.368 262-31.368 262-31.368"/><path d="M0 537.835s131-31.367 262-31.367 262 31.367 262 31.367 131 31.367 262 31.367 262-31.367 262-31.367 131-31.367 262-31.367 262 31.367 262 31.367 131 31.367 262 31.367 262-31.367 262-31.367M0 443.734s131-31.367 262-31.367 262 31.367 262 31.367 131 31.367 262 31.367 262-31.367 262-31.367 131-31.367 262-31.367 262 31.367 262 31.367 131 31.367 262 31.367 262-31.367 262-31.367"/><path d="M0 412.367S131 381 262 381s262 31.367 262 31.367 131 31.367 262 31.367 262-31.367 262-31.367S1179 381 1310 381s262 31.367 262 31.367 131 31.367 262 31.367 262-31.367 262-31.367M0 569.203s131-31.368 262-31.368 262 31.368 262 31.368 131 31.367 262 31.367 262-31.367 262-31.367 131-31.368 262-31.368 262 31.368 262 31.368 131 31.367 262 31.367 262-31.367 262-31.367M0 318.468s131-31.367 262-31.367 262 31.367 262 31.367 131 31.367 262 31.367 262-31.367 262-31.367 131-31.367 262-31.367 262 31.367 262 31.367 131 31.367 262 31.367 262-31.367 262-31.367"/><path d="M0 287.101s131-31.367 262-31.367 262 31.367 262 31.367 131 31.368 262 31.368 262-31.368 262-31.368 131-31.367 262-31.367 262 31.367 262 31.367 131 31.368 262 31.368 262-31.368 262-31.368"/><path d="M0 349.835s131-31.367 262-31.367 262 31.367 262 31.367 131 31.367 262 31.367 262-31.367 262-31.367 131-31.367 262-31.367 262 31.367 262 31.367 131 31.367 262 31.367 262-31.367 262-31.367M0 255.734s131-31.367 262-31.367 262 31.367 262 31.367 131 31.367 262 31.367 262-31.367 262-31.367 131-31.367 262-31.367 262 31.367 262 31.367 131 31.367 262 31.367 262-31.367 262-31.367"/><path d="M0 224.367S131 193 262 193s262 31.367 262 31.367 131 31.367 262 31.367 262-31.367 262-31.367S1179 193 1310 193s262 31.367 262 31.367 131 31.367 262 31.367 262-31.367 262-31.367M0 381.203s131-31.368 262-31.368 262 31.368 262 31.368 131 31.367 262 31.367 262-31.367 262-31.367 131-31.368 262-31.368 262 31.368 262 31.368 131 31.367 262 31.367 262-31.367 262-31.367"/></g></svg>