<svg version="1.0" xmlns="http://www.w3.org/2000/svg" width="160" height="160" viewBox="0 0 120 120"><path d="M0 50.9v50.9l3.3.6c6.2 1.1 19.2 1 21.4-.2 3.6-1.9 9.1-1.5 10.3.8.9 1.7 2.1 2 7.2 2h6.1l-2.1-2.3c-1.5-1.6-2.2-3.6-2.2-6.2 0-3.7 0-3.8 2-2 1.1 1 2 3 2 4.4 0 1.6.3 2.1.8 1.4.6-.9 1.7-.3 4.1 2.2 1.8 1.9 3.7 3.5 4.2 3.5.4 0 1.2 1.5 1.7 3.3l.9 3.2 1.1-2.7c.6-1.5 3.1-3.9 5.4-5.4C71.4 101.2 80 93.1 80 91.3c0-1.9-3.1-.3-6.6 3.4-2.7 2.9-3.8 3.3-8 3.3-2.7 0-6.6-.5-8.6-1-3-.9-3.9-1.7-4.9-4.8-.6-2-2.5-4.8-4.1-6.2-2-1.8-3-3.7-3.3-6.5l-.5-4 1.5 3.3c.8 1.7 2.1 3.2 2.9 3.2.7 0 2.4.9 3.8 1.9 1.5 1.2 2.9 1.6 3.7 1.1 1.1-.6 1.1-.8 0-1.2-1.6-.6-.8-1.9 1.5-2.2.9-.1 2.2-1 2.9-2 1.1-1.5 1.7-1.7 3.5-.7 1.3.7 2.2.8 2.2.2 0-1.4-2.9-4.1-4.4-4.1-.8 0-1.9-.7-2.6-1.5-.7-.8-2.1-1.5-3.1-1.5-2.7 0-2.4-3 .6-5.9 1.4-1.3 2.5-3.1 2.5-4 0-1 .7-2.6 1.5-3.7 1.5-1.9 1.5-1.8 3.7.6 2 2.4 2.1 2.4 1.6.3-.7-2.6 1.6-5.2 2.5-2.9.5 1.2 2.2 1.5 7.6 1.3 5.4-.1 6.7-.5 5.9-1.4-.6-.7-1.7-1.3-2.4-1.3-.8 0-1.4-.4-1.4-.9 0-3.9-8.1-5.5-10.2-2.1-1.6 2.6-6.7 2.6-9.9.2-4-3.1-5.5-3.2-13.1-1.3-4 1.1-7.5 1.7-7.7 1.5-.3-.3.1-1.9.7-3.7.7-1.9 1.2-5.7 1.2-8.5 0-9.8 2.9-12 18.5-14.1 6.8-1 8.7-.9 12.8.5 2.6.9 6.1 1.4 7.7 1.2 2.3-.4 3.6.2 6 2.7 2.6 2.7 3.2 4.2 4.1 11.9C89.3 52 89 54 86.3 54c-1.6 0-1.8.6-1.4 4.2.3 2.5.7 3.4.9 2.1.4-2.4 4.5-7.3 6.2-7.3.6 0 1.6 1.1 2.2 2.5.9 2 .7 3.5-1.1 8.1C92 66.7 91 70 91 71.1c0 1-.9 2.3-2 2.9-1.1.6-2 2.1-2 3.3 0 1.2-.7 3.5-1.5 5.1-1.1 2.2-1.4 4.5-.9 9.3.7 6.3.6 6.5-2.7 10l-3.4 3.5 6.3-.4c4.5-.3 6.6-.9 7.5-2.2 1.1-1.5 2.1-1.7 5.8-1.1 2.4.4 8.2.7 12.9.8l8.5.2.3-51.3L120 0H0v50.9zm80.6-38.4c.9.8 1.1 1.5.6 1.5-.5 0-1.5-.7-2.2-1.5-.7-.8-.9-1.5-.6-1.5.4 0 1.4.7 2.2 1.5zM53.8 60.2c3.2 2.2 2.5 5.1-1.3 5.9-1.7.4-2.2.7-1.1.8 1.4.1 1.7.6 1.2 2.3-.3 1.3-.6 3.3-.6 4.5 0 1.6-.6 2.3-2 2.3-1.1 0-2-.4-2-1 0-.5-1.5-.8-3.2-.6-2.4.3-3.2.8-3 2 .7 3.6-1.6 1.3-2.6-2.7-1.1-4.5-2.5-14.6-1.5-11.2.9 3.3 2.4 4.5 5.7 4.4l3.1-.1-3-.7c-2.4-.5-3.1-1.2-3.3-3.5-.3-2.8-.3-2.8 3.7-2.1 3.5.6 4 .4 3.5-.9-.8-2 3.3-1.7 6.4.6z"/><path d="M76 72.8c0 .5.7 1.5 1.5 2.2.8.7 1.5.8 1.5.2 0-.5-.7-1.5-1.5-2.2-.8-.7-1.5-.8-1.5-.2zM72.5 80c-.3.5.1 1 .9 1s1.8-.5 2.1-1c.3-.6-.1-1-.9-1s-1.8.4-2.1 1zM54.9 88c-.6.4-.9 1.2-.5 1.8.8 1.4 8.6 2.6 9.7 1.5 1.1-1.1-7.6-4.2-9.2-3.3z"/></svg>