<svg xmlns="http://www.w3.org/2000/svg" xmlns:xlink="http://www.w3.org/1999/xlink" version="1.0" viewBox="0 0 244 342">
  <defs>
    <linearGradient id="b">
      <stop offset="0" stop-color="#2191b6" />
      <stop offset=".725" stop-color="#4cbade" />
      <stop offset=".856" stop-color="#c8eaf5" />
      <stop offset="1" stop-color="#7ccde9" />
    </linearGradient>
    <linearGradient id="a">
      <stop offset="0" />
      <stop offset="1" stop-opacity="0" />
    </linearGradient>
    <linearGradient id="c">
      <stop offset="0" stop-color="#fff" />
      <stop offset=".868" stop-color="#35c4e9" />
      <stop offset="1" stop-color="#0a4d94" />
    </linearGradient>
    <linearGradient id="d">
      <stop offset="0" stop-color="#fff" />
      <stop offset="1" stop-color="#848484" />
    </linearGradient>
    <linearGradient xlink:href="#a" id="j" x1="64.192" x2="63.436" y1="131.891" y2="103.341"
      gradientUnits="userSpaceOnUse" />
    <radialGradient xlink:href="#b" id="i" cx="64.65" cy="125.641" r="65.386" fx="64.65" fy="125.641"
      gradientTransform="matrix(1.00695 -.04624 .01709 .60789 -2.44 49.337)" gradientUnits="userSpaceOnUse" />
    <radialGradient xlink:href="#c" id="h" cx="413.03" cy="164.845" r="62.673" fx="413.03" fy="164.845"
      gradientTransform="matrix(1.0529 .2433 -.13289 .57507 -288.439 -164.035)" gradientUnits="userSpaceOnUse" />
    <radialGradient xlink:href="#c" id="f" cx="65.121" cy="105.035" r="64.499" fx="65.121" fy="105.035"
      gradientTransform="matrix(.7725 .27946 -.21534 .52867 53.254 58.121)" gradientUnits="userSpaceOnUse" />
    <radialGradient xlink:href="#d" id="e" cx="280.563" cy="429.615" r="50.012" fx="280.563" fy="429.615"
      gradientTransform="matrix(.32852 .12053 -2.25829 6.15506 884.279 -2357.911)" gradientUnits="userSpaceOnUse" />
    <filter id="g">
      <feGaussianBlur stdDeviation="2.108" />
    </filter>
    <filter id="k">
      <feGaussianBlur stdDeviation=".609" />
    </filter>
  </defs>
  <path fill="url(#e)" fill-rule="evenodd" stroke="#000" stroke-width="8"
    d="M49.948 149.418 4.203 326.098c-1.989 22.873 11.27 3.316 11.27 3.316L96.025 161.02l-46.076-11.602z" />
  <path fill="url(#f)" stroke="#000" stroke-linecap="round" stroke-width="8"
    d="M130.862 159.8a57.07 32.88 17.798 1 1-107.796-37.338A57.07 32.88 17.798 1 1 130.862 159.8z" />
  <path fill="#f50000" fill-rule="evenodd" stroke="#000" stroke-width="8"
    d="M67.185 52.956 41.33 125.551c1.326 28.176 57.016 41.767 73.921 27.182l27.182-74.915-75.247-24.862z" />
  <path fill="#fff" fill-opacity=".152" fill-rule="evenodd" stroke="#000" stroke-opacity=".493" stroke-width="6.688"
    d="m366.349 188.62-28.908 79.915c1.108 23.555 47.664 34.917 61.797 22.724l28.028-77.214-60.917-25.425z"
    filter="url(#g)" transform="matrix(1.0773 0 0 1.02757 -318.257 -148.698)" />
  <path fill="url(#h)" fill-rule="evenodd" stroke="#000" stroke-width="8"
    d="m62.305 12.21-8.38 22.183c3.647 26.85 81.877 56.352 107.733 40.773l9.613-23.204" />
  <path fill="#c2e8f4" stroke="#000" stroke-linecap="round" stroke-width="7.973"
    d="M169.496 55.327a57.928 22.861 19.845 1 1-106.17-44.41 57.928 22.861 19.845 1 1 106.17 44.41z" />
  <path fill="url(#i)" stroke="url(#j)" stroke-linecap="round" stroke-opacity=".54" stroke-width="10.443"
    d="M124.97 122.724a60.164 36.629 0 1 1-120.33 0 60.164 36.629 0 1 1 120.33 0z" filter="url(#k)"
    transform="matrix(.82267 .37226 -.40508 .42935 112.649 -44.672)" />
</svg>