<svg viewBox="0 0 58 114" fill="none" xmlns="http://www.w3.org/2000/svg">
<path d="M57 30H49C48.92 23.67 48 19.94 46.12 17.64C43.54 14.56 37.78 13 29 13C20.22 13 14.46 14.56 11.89 17.64C10 19.94 9.09 23.67 9 30H1C1 15.09 7 1 29 1C51 1 57 15.09 57 30Z" fill="white"/>
<path d="M49 30H57C57 39.6 55.76 48 48.2 52.82C44 55.47 37.91 57 29 57C20.09 57 14 55.47 9.8 52.82C2.24 48 1 39.6 1 30H9C9 30.34 9 30.69 9 31C9 45 15 51 29 51C43 51 49 45 49 31C49 30.64 49 30.29 49 30Z" fill="white"/>
<path d="M45.84 76.2803L46.12 81.0003H11.88L12.16 76.2803L3.16 79.2803L1 80.0003C1 64.5403 3.49 56.5503 9.8 52.8203C14 55.4703 20.09 57.0003 29 57.0003C37.91 57.0003 44 55.4703 48.2 52.8203C54.51 56.5503 57 64.5403 57 80.0003L54.85 79.2803L45.84 76.2803ZM36.94 76.0003C37.228 76.0032 37.5131 75.9438 37.776 75.8262C38.0389 75.7087 38.2733 75.5358 38.4632 75.3193C38.6531 75.1028 38.794 74.8479 38.8763 74.5719C38.9586 74.2959 38.9803 74.0054 38.94 73.7203L37.72 65.4303C37.565 64.4695 37.0716 63.5958 36.3289 62.9668C35.5863 62.3378 34.6432 61.995 33.67 62.0003H24.33C23.3499 61.9854 22.3973 62.3238 21.6463 62.9537C20.8952 63.5835 20.396 64.4626 20.24 65.4303L19 73.7203C18.9597 74.0054 18.9814 74.2959 19.0637 74.5719C19.146 74.8479 19.2869 75.1028 19.4768 75.3193C19.6667 75.5358 19.9011 75.7087 20.164 75.8262C20.4269 75.9438 20.712 76.0032 21 76.0003H36.94Z" fill="white"/>
<path d="M32 70C33.1046 70 34 69.1046 34 68C34 66.8954 33.1046 66 32 66C30.8954 66 30 66.8954 30 68C30 69.1046 30.8954 70 32 70Z" fill="#595863"/>
<path d="M45.8401 76.2803L54.8401 79.2803C54.0901 82.7803 50.3401 85.8603 46.4001 85.9903L46.1101 80.9903L45.8401 76.2803Z" fill="#B5B3C9"/>
<path d="M49 31C49.0251 33.2199 48.8342 35.437 48.43 37.62C46.66 46.94 40.56 51 29 51C26.3082 51.042 23.6214 50.7532 21 50.14C12.67 48 9 42 9 31C9 30.64 9 30.29 9 30C9.08 23.67 10 19.94 11.88 17.64C14.46 14.56 20.22 13 29 13C37.78 13 43.54 14.56 46.11 17.64C48.03 19.94 48.91 23.64 48.99 30C49 30.34 49 30.69 49 31Z" fill="#B5B3C9"/>
<path d="M47.05 96.8604L48 113C44.5 102.33 32.5 102.33 29 113V100L47.05 96.8604Z" fill="white"/>
<path d="M48 113H29C32.5 102.33 44.5 102.33 48 113Z" fill="#595863"/>
<path d="M46.82 92.9004L47.05 96.8604L29 100V96.0004L46.82 92.9004Z" fill="#3451E8"/>
<path d="M28.9999 96L11.1799 92.9L11.5899 85.99L11.8799 81H46.1199L46.4099 85.99L46.8199 92.9L28.9999 96Z" fill="white"/>
<path d="M39 73.7205C39.0403 74.0056 39.0186 74.2961 38.9363 74.5721C38.854 74.848 38.7131 75.103 38.5232 75.3194C38.3333 75.5359 38.0989 75.7089 37.836 75.8264C37.5731 75.9439 37.288 76.0033 37 76.0005H21.06C20.772 76.0033 20.4869 75.9439 20.224 75.8264C19.9611 75.7089 19.7267 75.5359 19.5368 75.3194C19.3469 75.103 19.206 74.848 19.1237 74.5721C19.0414 74.2961 19.0197 74.0056 19.06 73.7205L20.28 65.4305C20.435 64.4697 20.9284 63.5959 21.6711 62.967C22.4137 62.338 23.3568 61.9952 24.33 62.0005H33.67C34.6501 61.9856 35.6027 62.324 36.3537 62.9538C37.1048 63.5837 37.604 64.4628 37.76 65.4305L39 73.7205ZM34 68.0005C34 67.6049 33.8827 67.2182 33.6629 66.8893C33.4432 66.5604 33.1308 66.3041 32.7654 66.1527C32.3999 66.0013 31.9978 65.9617 31.6098 66.0389C31.2219 66.1161 30.8655 66.3066 30.5858 66.5863C30.3061 66.866 30.1156 67.2223 30.0384 67.6103C29.9613 67.9983 30.0009 68.4004 30.1522 68.7658C30.3036 69.1313 30.56 69.4437 30.8889 69.6634C31.2178 69.8832 31.6044 70.0005 32 70.0005C32.5304 70.0005 33.0391 69.7898 33.4142 69.4147C33.7893 69.0396 34 68.5309 34 68.0005Z" fill="#B5B3C9"/>
<path d="M29 100V113C25.5 102.33 13.5 102.33 10 113L11 96.8604L29 100Z" fill="white"/>
<path d="M29 96.0004V100L10.95 96.8604L11.18 92.9004L29 96.0004Z" fill="#3451E8"/>
<path d="M29 113H10C13.5 102.33 25.5 102.33 29 113Z" fill="#595863"/>
<path d="M12.1599 76.2803L11.8799 81.0003L11.5899 86.0003C7.6499 85.8703 3.8999 82.7903 3.1499 79.2903L12.1599 76.2803Z" fill="#B5B3C9"/>
<path d="M48.43 37.6699C46.66 46.9399 40.56 50.9999 29 50.9999C26.3082 51.042 23.6214 50.7531 21 50.1399C28.26 46.8399 42.69 47.4699 48.43 37.6699Z" fill="#9695AF"/>
<path d="M3.1499 79.2803C3.8999 82.7803 7.6499 85.8603 11.5899 85.9903" stroke="#27272D" stroke-width="2" stroke-linecap="round" stroke-linejoin="round"/>
<path d="M46.4099 86C50.3499 85.87 54.0999 82.79 54.8499 79.29" stroke="#27272D" stroke-width="2" stroke-linecap="round" stroke-linejoin="round"/>
<path d="M9.8 52.8203C3.49 56.5503 1 64.5403 1 80.0003L3.15 79.2803L12.15 76.2803" stroke="#27272D" stroke-width="2" stroke-linecap="round" stroke-linejoin="round"/>
<path d="M10 113L10.95 96.86L11.18 92.9L11.59 85.99L11.88 81L12.16 76.28L13 62" stroke="#27272D" stroke-width="2" stroke-linecap="round" stroke-linejoin="round"/>
<path d="M45 62L45.84 76.28L46.12 81L46.41 85.99L46.82 92.9L47.05 96.86L48 113" stroke="#27272D" stroke-width="2" stroke-linecap="round" stroke-linejoin="round"/>
<path d="M48.2001 52.8203C54.5101 56.5503 57.0001 64.5403 57.0001 80.0003L54.8501 79.2803L45.8501 76.2803" stroke="#27272D" stroke-width="2" stroke-linecap="round" stroke-linejoin="round"/>
<path d="M46.1199 81H11.8799" stroke="#27272D" stroke-width="2" stroke-linecap="round" stroke-linejoin="round"/>
<path d="M29 113V100V96V93" stroke="#27272D" stroke-width="2" stroke-linecap="round" stroke-linejoin="round"/>
<path d="M10 113C13.5 102.33 25.5 102.33 29 113H10Z" stroke="#27272D" stroke-width="2" stroke-linecap="round" stroke-linejoin="round"/>
<path d="M29 113C32.5 102.33 44.5 102.33 48 113H29Z" stroke="#27272D" stroke-width="2" stroke-linecap="round" stroke-linejoin="round"/>
<path d="M1 30C1 39.6 2.24 48 9.8 52.82C14 55.47 20.09 57 29 57C37.91 57 44 55.47 48.2 52.82C55.76 48 57 39.6 57 30C57 15.09 51 1 29 1C7 1 1 15.09 1 30Z" stroke="#27272D" stroke-width="2" stroke-linecap="round" stroke-linejoin="round"/>
<path d="M49 30C48.92 23.67 48 19.94 46.12 17.64C43.54 14.56 37.78 13 29 13C20.22 13 14.46 14.56 11.89 17.64C10 19.94 9.09 23.67 9 30C9 30.34 9 30.69 9 31C9 45 15 51 29 51C43 51 49 45 49 31C49 30.69 49 30.34 49 30Z" stroke="#27272D" stroke-width="2" stroke-linecap="round" stroke-linejoin="round"/>
<path d="M28.9999 96.0004L11.1799 92.9004" stroke="#27272D" stroke-width="2" stroke-linecap="round" stroke-linejoin="round"/>
<path d="M29 100L10.95 96.8604" stroke="#27272D" stroke-width="2" stroke-linecap="round" stroke-linejoin="round"/>
<path d="M46.82 92.9004L29 96.0004" stroke="#27272D" stroke-width="2" stroke-linecap="round" stroke-linejoin="round"/>
<path d="M47.05 96.8604L29 100" stroke="#27272D" stroke-width="2" stroke-linecap="round" stroke-linejoin="round"/>
<path d="M36.94 76.0005H21.06C20.772 76.0033 20.4869 75.9439 20.224 75.8264C19.9611 75.7089 19.7267 75.5359 19.5368 75.3194C19.3469 75.103 19.206 74.848 19.1237 74.5721C19.0414 74.2961 19.0197 74.0056 19.06 73.7205L20.28 65.4305C20.435 64.4697 20.9284 63.5959 21.6711 62.967C22.4137 62.338 23.3568 61.9952 24.33 62.0005H33.67C34.6501 61.9856 35.6027 62.324 36.3537 62.9538C37.1048 63.5837 37.604 64.4628 37.76 65.4305L38.98 73.7205C39.0209 74.009 38.9983 74.303 38.9137 74.5819C38.8291 74.8608 38.6846 75.1178 38.4903 75.335C38.296 75.5521 38.0566 75.7242 37.7888 75.8392C37.521 75.9541 37.2313 76.0092 36.94 76.0005Z" stroke="#27272D" stroke-width="2" stroke-linecap="round" stroke-linejoin="round"/>
<path d="M32 70C33.1046 70 34 69.1046 34 68C34 66.8954 33.1046 66 32 66C30.8954 66 30 66.8954 30 68C30 69.1046 30.8954 70 32 70Z" stroke="#27272D" stroke-width="2" stroke-linecap="round" stroke-linejoin="round"/>
<path d="M1 30H9" stroke="#27272D" stroke-width="2" stroke-linecap="round" stroke-linejoin="round"/>
<path d="M57 30H49" stroke="#27272D" stroke-width="2" stroke-linecap="round" stroke-linejoin="round"/>
<path d="M15.5801 22.7303C15.9134 22.1895 16.34 21.7121 16.8401 21.3203C17.3425 20.9177 17.9156 20.6124 18.5301 20.4203C19.1565 20.2213 19.8137 20.1366 20.4701 20.1703C21.1152 20.2028 21.7537 20.3171 22.3701 20.5103C22.4968 20.5464 22.6152 20.6071 22.7184 20.689C22.8217 20.7708 22.9078 20.8722 22.9719 20.9874C23.036 21.1025 23.0767 21.2292 23.0919 21.3601C23.107 21.491 23.0962 21.6236 23.0601 21.7503C23.024 21.877 22.9632 21.9954 22.8814 22.0986C22.7995 22.2019 22.6981 22.288 22.583 22.3521C22.4678 22.4162 22.3412 22.4569 22.2103 22.4721C22.0794 22.4872 21.9468 22.4764 21.8201 22.4403H21.6901C21.2607 22.2321 20.8073 22.0776 20.3401 21.9803C19.8806 21.8962 19.4096 21.8962 18.9501 21.9803C18.4736 22.053 18.0155 22.2159 17.6001 22.4603C17.1747 22.7017 16.7927 23.0127 16.4701 23.3803C16.3866 23.4708 16.2726 23.5274 16.15 23.5391C16.0274 23.5508 15.9048 23.5169 15.8057 23.4438C15.7066 23.3707 15.6379 23.2636 15.6129 23.143C15.5879 23.0224 15.6082 22.8968 15.6701 22.7903L15.5801 22.7303Z" fill="#27272D"/>
<path d="M41.5799 23.2695C41.2573 22.9019 40.8753 22.591 40.4499 22.3495C40.0345 22.1052 39.5763 21.9423 39.0999 21.8695C38.6404 21.7854 38.1694 21.7854 37.7099 21.8695C37.2427 21.9669 36.7893 22.1214 36.3599 22.3295V22.3295C36.1173 22.4383 35.8413 22.4462 35.5928 22.3515C35.3443 22.2567 35.1437 22.0672 35.0349 21.8245C34.9262 21.5819 34.9183 21.3059 35.013 21.0575C35.1077 20.809 35.2973 20.6083 35.5399 20.4995H35.6699C36.2863 20.3063 36.9248 20.1921 37.5699 20.1595C38.2263 20.1259 38.8835 20.2105 39.5099 20.4095C40.1244 20.6017 40.6975 20.9069 41.1999 21.3095C41.7 21.7013 42.1266 22.1787 42.4599 22.7195C42.5218 22.826 42.5421 22.9516 42.5171 23.0722C42.4921 23.1928 42.4234 23.2999 42.3243 23.373C42.2252 23.4461 42.1026 23.4801 41.98 23.4684C41.8574 23.4567 41.7434 23.4001 41.6599 23.3095L41.5799 23.2695Z" fill="#27272D"/>
<path d="M38 31C39.6569 31 41 29.6569 41 28C41 26.3431 39.6569 25 38 25C36.3431 25 35 26.3431 35 28C35 29.6569 36.3431 31 38 31Z" fill="#27272D"/>
<path d="M20 31C21.6569 31 23 29.6569 23 28C23 26.3431 21.6569 25 20 25C18.3431 25 17 26.3431 17 28C17 29.6569 18.3431 31 20 31Z" fill="#27272D"/>
<path class="fix-that-smile-plz" d="M36.5 38.5C36.5 38.5 33.3 45.87 24.5 42.71" stroke="#27272D" stroke-width="2" stroke-linecap="round" stroke-linejoin="round"/>
</svg>
