<?xml version="1.0" standalone="no"?>
<!DOCTYPE svg PUBLIC "-//W3C//DTD SVG 20010904//EN"
 "http://www.w3.org/TR/2001/REC-SVG-20010904/DTD/svg10.dtd">
<svg version="1.0" xmlns="http://www.w3.org/2000/svg"
 width="120.000000pt" height="120.000000pt" viewBox="0 0 120.000000 120.000000"
 preserveAspectRatio="xMidYMid meet">
<metadata>
Created by potrace 1.11, written by Peter Selinger 2001-2013
</metadata>
<g transform="translate(0.000000,120.000000) scale(0.100000,-0.100000)"
fill="#000000" stroke="none">
<path d="M0 691 l0 -509 33 -6 c62 -11 192 -10 214 2 36 19 91 15 103 -8 9
-17 21 -20 72 -20 l61 0 -21 23 c-15 16 -22 36 -22 62 0 37 0 38 20 20 11 -10
20 -30 20 -44 0 -16 3 -21 8 -14 6 9 17 3 41 -22 18 -19 37 -35 42 -35 4 0 12
-15 17 -33 l9 -32 11 27 c6 15 31 39 54 54 52 32 138 113 138 131 0 19 -31 3
-66 -34 -27 -29 -38 -33 -80 -33 -27 0 -66 5 -86 10 -30 9 -39 17 -49 48 -6
20 -25 48 -41 62 -20 18 -30 37 -33 65 l-5 40 15 -33 c8 -17 21 -32 29 -32 7
0 24 -9 38 -19 15 -12 29 -16 37 -11 11 6 11 8 0 12 -16 6 -8 19 15 22 9 1 22
10 29 20 11 15 17 17 35 7 13 -7 22 -8 22 -2 0 14 -29 41 -44 41 -8 0 -19 7
-26 15 -7 8 -21 15 -31 15 -27 0 -24 30 6 59 14 13 25 31 25 40 0 10 7 26 15
37 15 19 15 18 37 -6 20 -24 21 -24 16 -3 -7 26 16 52 25 29 5 -12 22 -15 76
-13 54 1 67 5 59 14 -6 7 -17 13 -24 13 -8 0 -14 4 -14 9 0 39 -81 55 -102 21
-16 -26 -67 -26 -99 -2 -40 31 -55 32 -131 13 -40 -11 -75 -17 -77 -15 -3 3 1
19 7 37 7 19 12 57 12 85 0 98 29 120 185 141 68 10 87 9 128 -5 26 -9 61 -14
77 -12 23 4 36 -2 60 -27 26 -27 32 -42 41 -119 12 -96 9 -116 -18 -116 -16 0
-18 -6 -14 -42 3 -25 7 -34 9 -21 4 24 45 73 62 73 6 0 16 -11 22 -25 9 -20 7
-35 -11 -81 -11 -31 -21 -64 -21 -75 0 -10 -9 -23 -20 -29 -11 -6 -20 -21 -20
-33 0 -12 -7 -35 -15 -51 -11 -22 -14 -45 -9 -93 7 -63 6 -65 -27 -100 l-34
-35 63 4 c45 3 66 9 75 22 11 15 21 17 58 11 24 -4 82 -7 129 -8 l85 -2 3 513
2 512 -600 0 -600 0 0 -509z m806 384 c9 -8 11 -15 6 -15 -5 0 -15 7 -22 15
-7 8 -9 15 -6 15 4 0 14 -7 22 -15z m-268 -477 c32 -22 25 -51 -13 -59 -17 -4
-22 -7 -11 -8 14 -1 17 -6 12 -23 -3 -13 -6 -33 -6 -45 0 -16 -6 -23 -20 -23
-11 0 -20 4 -20 10 0 5 -15 8 -32 6 -24 -3 -32 -8 -30 -20 7 -36 -16 -13 -26
27 -11 45 -25 146 -15 112 9 -33 24 -45 57 -44 l31 1 -30 7 c-24 5 -31 12 -33
35 -3 28 -3 28 37 21 35 -6 40 -4 35 9 -8 20 33 17 64 -6z"/>
<path d="M760 472 c0 -5 7 -15 15 -22 8 -7 15 -8 15 -2 0 5 -7 15 -15 22 -8 7
-15 8 -15 2z"/>
<path d="M725 400 c-3 -5 1 -10 9 -10 8 0 18 5 21 10 3 6 -1 10 -9 10 -8 0
-18 -4 -21 -10z"/>
<path d="M549 320 c-6 -4 -9 -12 -5 -18 8 -14 86 -26 97 -15 11 11 -76 42 -92
33z"/>
</g>
</svg>
